<?xml version="1.0" standalone="no"?>
<!DOCTYPE svg PUBLIC "-//W3C//DTD SVG 20010904//EN"
 "http://www.w3.org/TR/2001/REC-SVG-20010904/DTD/svg10.dtd">
<svg version="1.0" xmlns="http://www.w3.org/2000/svg"
 width="696.000000pt" height="749.000000pt" viewBox="0 0 696.000000 749.000000"
 preserveAspectRatio="xMidYMid meet">
<metadata>
Created by potrace 1.16, written by Peter Selinger 2001-2019
</metadata>
<g transform="translate(0.000000,749.000000) scale(0.100000,-0.100000)"
fill="#000000" stroke="none">
<path d="M3462 7337 c-17 -31 -94 -178 -171 -329 -566 -1105 -963 -2091 -1051
-2601 -106 -623 233 -1322 772 -1592 58 -29 103 -45 127 -45 20 0 81 -12 136
-26 491 -127 1062 219 1315 796 79 180 122 346 141 546 10 103 10 138 -4 235
-43 299 -207 808 -426 1321 -22 53 -41 113 -41 133 0 38 -44 142 -217 515 -88
190 -515 1047 -542 1088 -6 10 -17 -2 -39 -41z m228 -739 c166 -340 293 -613
413 -890 58 -136 85 -188 97 -188 13 0 37 -51 94 -197 146 -371 248 -701 281
-907 18 -107 19 -315 4 -441 -64 -526 -419 -958 -862 -1049 -98 -20 -347 -21
-449 -2 -101 20 -128 31 -128 56 0 11 -7 20 -15 20 -21 0 -106 43 -187 96
-253 163 -452 492 -513 849 -21 123 -25 352 -7 455 76 436 383 1213 859 2183
l157 317 54 0 54 0 148 -302z"/>
<path d="M428 4703 c-34 -36 -358 -780 -358 -822 0 -39 52 -101 85 -101 38 0
76 58 145 218 l65 152 54 -2 55 -3 33 -115 c168 -593 447 -1098 860 -1560 212
-237 449 -433 716 -591 l137 -82 0 -53 0 -54 -938 0 -938 0 -31 -32 c-65 -69
-68 -103 -14 -161 l40 -42 1410 -3 c945 -1 1411 1 1411 8 0 7 545 10 1650 10
1239 0 1655 3 1675 12 14 6 34 26 45 44 25 39 16 68 -30 107 l-32 27 -909 0
-909 0 0 54 0 54 122 67 c436 238 821 585 1127 1013 210 295 410 692 522 1041
23 69 40 105 51 108 18 5 38 70 89 295 43 185 43 208 0 252 -40 42 -69 45 -99
13 -36 -38 -53 -96 -62 -206 -20 -247 -183 -711 -371 -1056 -87 -160 -207
-343 -325 -495 -111 -143 -364 -400 -504 -510 -390 -309 -818 -501 -1285 -576
-231 -37 -817 -27 -848 15 -8 11 -46 23 -106 34 -203 39 -463 132 -686 246
-137 70 -395 235 -456 292 -20 19 -82 75 -139 124 -266 232 -542 599 -730 970
-154 305 -305 738 -298 852 l3 48 51 3 c50 3 56 0 200 -93 82 -52 156 -95 165
-95 23 0 76 62 84 99 7 32 -10 75 -41 102 -11 9 -150 100 -310 202 -160 103
-297 194 -304 202 -19 22 -43 18 -72 -12z"/>
<path d="M350 1023 c-41 -15 -90 -82 -90 -124 0 -12 19 -40 44 -65 l43 -44
1587 0 c1051 0 1586 3 1586 10 0 16 2957 14 2963 -2 3 -9 13 -5 32 12 52 48
74 120 36 120 -10 0 -21 7 -25 15 -3 8 -20 24 -38 35 -33 20 -50 20 -1589 20
-1352 0 -1558 2 -1575 15 -16 12 -211 14 -1489 14 -808 0 -1477 -3 -1485 -6z"/>
</g>
</svg>
