<?xml version="1.0" standalone="no"?>
<!DOCTYPE svg PUBLIC "-//W3C//DTD SVG 20010904//EN"
 "http://www.w3.org/TR/2001/REC-SVG-20010904/DTD/svg10.dtd">
<svg version="1.0" xmlns="http://www.w3.org/2000/svg"
 width="693.000000pt" height="746.000000pt" viewBox="0 0 693.000000 746.000000"
 preserveAspectRatio="xMidYMid meet">

<g transform="translate(0.000000,746.000000) scale(0.100000,-0.100000)"
fill="#000000" stroke="none">
<path d="M2282 5814 c-46 -32 -53 -65 -98 -473 -24 -218 -44 -404 -44 -413 0
-17 -56 -18 -1029 -18 l-1028 0 -28 -22 c-73 -57 -73 -199 0 -256 l28 -22
1008 0 1009 0 -1 -27 c0 -16 -26 -260 -57 -543 l-57 -515 -371 -5 c-354 -5
-373 -6 -394 -25 -66 -59 -67 -180 -2 -247 l26 -28 353 0 c194 0 353 -2 353
-5 0 -7 -111 -1023 -175 -1605 -30 -272 -55 -521 -55 -553 0 -62 14 -100 50
-132 21 -19 39 -20 289 -23 l267 -3 11 -98 c31 -252 165 -520 330 -656 150
-123 334 -171 498 -130 298 76 530 392 585 799 6 44 11 81 13 82 1 2 277 4
612 5 l610 1 3 -33 c1 -19 10 -72 18 -118 64 -354 263 -630 518 -719 408 -142
815 222 887 793 l11 95 99 0 c54 0 110 5 124 12 60 27 59 22 151 800 115 967
119 1125 39 1441 -109 426 -368 766 -683 898 -130 54 -175 59 -534 59 -306 0
-328 1 -328 18 0 9 38 360 84 779 83 755 86 797 57 850 -30 57 79 53 -1591 53
-1375 0 -1538 -2 -1558 -16z m2934 -321 c-3 -21 -78 -695 -166 -1498 -88 -803
-195 -1759 -238 -2125 l-78 -665 -494 -2 -495 -3 -26 109 c-59 240 -191 444
-364 560 -401 268 -871 -21 -1005 -617 l-12 -52 -192 2 -191 3 2 25 c1 14 50
467 110 1008 l108 982 395 0 396 0 26 28 c67 70 64 195 -7 250 -27 22 -33 22
-401 22 -206 0 -374 3 -374 8 -1 14 111 1038 116 1060 l4 22 674 0 c668 0 674
0 700 21 38 30 56 71 56 129 0 58 -18 99 -56 129 -26 21 -33 21 -686 21 l-660
0 6 38 c3 20 17 145 31 277 14 132 28 255 31 273 l5 32 1395 0 1396 0 -6 -37z
m494 -1685 c-1 -37 -58 -579 -61 -583 -2 -2 -107 -7 -233 -11 l-228 -7 6 39
c7 46 66 558 66 574 0 6 77 10 225 10 l225 0 0 -22z m350 -13 c191 -67 373
-249 480 -478 77 -164 115 -312 129 -504 12 -150 -7 -413 -28 -413 -5 0 -34
25 -64 55 -66 66 -128 180 -157 291 -51 188 -144 320 -269 384 -66 33 -194 70
-242 70 -15 0 -30 3 -33 8 -4 7 51 586 59 609 4 13 49 5 125 -22z m-234 -885
c163 -14 235 -39 300 -104 49 -49 55 -61 89 -172 77 -246 183 -406 338 -509
49 -33 57 -42 56 -69 0 -17 -21 -211 -47 -431 l-47 -400 -56 -3 -56 -3 -26
101 c-62 238 -193 436 -362 549 -385 257 -849 -6 -989 -561 -17 -65 -29 -94
-40 -96 -11 -2 -16 4 -16 20 0 13 39 370 86 793 47 424 88 796 91 827 l6 57
141 4 c332 7 427 6 532 -3z m-2617 -1281 c373 -183 449 -867 132 -1189 -275
-280 -651 -122 -772 325 -31 113 -31 325 0 440 59 221 196 392 356 445 90 30
196 22 284 -21z m2660 0 c99 -48 185 -140 243 -259 69 -142 83 -206 83 -390 0
-132 -4 -167 -23 -234 -73 -254 -249 -430 -442 -444 -223 -16 -422 167 -501
463 -31 114 -31 326 0 440 48 179 134 311 260 398 110 76 257 86 380 26z"/>
<path d="M2992 1360 c-155 -37 -261 -266 -218 -469 38 -178 137 -285 266 -285
265 0 381 457 171 677 -62 66 -145 95 -219 77z m83 -315 c33 -32 33 -84 1
-122 -24 -27 -26 -27 -52 -13 -49 27 -56 98 -14 140 26 26 36 25 65 -5z"/>
<path d="M5642 1356 c-206 -66 -287 -409 -146 -624 64 -97 157 -144 246 -123
133 30 224 164 236 345 16 253 -156 459 -336 402z m93 -311 c33 -32 33 -84 1
-122 -24 -27 -26 -27 -52 -13 -49 27 -56 98 -14 140 26 26 36 25 65 -5z"/>
<path d="M792 4198 c-60 -29 -84 -143 -47 -221 32 -68 22 -67 538 -67 456 0
465 0 491 21 14 11 33 34 41 49 20 38 19 124 -1 166 -31 65 -24 64 -536 63
-313 0 -470 -4 -486 -11z"/>
</g>
</svg>
