<?xml version="1.0" standalone="no"?>
<!DOCTYPE svg PUBLIC "-//W3C//DTD SVG 20010904//EN"
 "http://www.w3.org/TR/2001/REC-SVG-20010904/DTD/svg10.dtd">
<svg version="1.0" xmlns="http://www.w3.org/2000/svg"
 width="693.000000pt" height="746.000000pt" viewBox="0 0 693.000000 746.000000"
 preserveAspectRatio="xMidYMid meet">

<g transform="translate(0.000000,746.000000) scale(0.100000,-0.100000)"
fill="#000000" stroke="none">
<path d="M2585 6998 c-85 -31 -177 -135 -212 -242 -21 -66 -30 -320 -13 -400
34 -163 146 -289 278 -311 l43 -7 -3 -135 -3 -134 -100 -38 c-265 -101 -513
-261 -732 -474 -61 -60 -62 -60 -71 -36 -141 365 -387 938 -555 1291 -68 144
-92 171 -148 171 -69 0 -79 -16 -281 -463 -432 -957 -708 -1737 -773 -2181
-72 -502 135 -1090 483 -1370 136 -110 299 -188 425 -205 26 -4 49 -9 51 -13
2 -3 16 -76 30 -161 161 -960 684 -1752 1385 -2101 719 -357 1522 -201 2134
413 658 663 981 1742 842 2815 -106 808 -492 1558 -1025 1986 -181 146 -425
284 -597 338 l-73 23 0 136 0 137 54 12 c108 24 196 110 244 240 33 88 43 309
18 414 -32 135 -109 243 -206 286 -44 20 -63 21 -605 20 -370 0 -570 -4 -590
-11z m1127 -309 c33 -18 48 -71 48 -167 0 -76 -3 -94 -23 -123 l-23 -34 -524
-3 c-289 -1 -535 0 -547 3 -39 9 -53 54 -53 169 0 98 2 106 26 135 l26 31 525
0 c356 0 531 -3 545 -11z m-2592 -566 c401 -911 625 -1501 728 -1928 43 -175
56 -288 49 -419 -25 -471 -281 -867 -634 -984 -66 -21 -96 -25 -193 -25 -133
0 -227 25 -340 90 -93 54 -253 217 -313 320 -148 254 -208 567 -162 848 62
380 311 1074 702 1958 58 130 108 237 112 237 4 0 27 -44 51 -97z m2330 -186
l0 -102 -280 0 -280 0 0 102 0 103 280 0 280 0 0 -103z m-21 -434 c252 -41
522 -163 756 -342 227 -173 465 -466 620 -764 238 -456 349 -926 349 -1477 0
-531 -99 -968 -319 -1415 -141 -286 -287 -489 -502 -695 -145 -140 -268 -229
-433 -314 -333 -171 -668 -223 -1017 -155 -672 129 -1248 707 -1526 1531 -62
184 -149 569 -132 586 5 6 159 52 161 49 1 -1 9 -47 18 -102 56 -325 173 -656
320 -910 32 -55 70 -120 85 -145 39 -70 207 -265 313 -365 469 -444 1078 -564
1627 -321 321 142 614 408 831 756 117 187 241 478 304 711 140 523 135 1111
-14 1627 -126 435 -370 847 -655 1108 -330 303 -701 448 -1100 431 -222 -10
-402 -59 -605 -163 -153 -80 -278 -173 -422 -314 -145 -143 -123 -143 -174 2
l-26 77 36 44 c47 57 205 196 314 275 105 75 334 191 457 231 242 78 483 96
734 54z m-380 -1350 l0 -828 -42 -30 c-52 -37 -116 -131 -141 -205 -41 -125
-29 -296 30 -411 82 -163 246 -236 387 -172 67 31 138 108 173 187 l28 66 629
0 629 0 -7 -72 c-20 -224 -76 -474 -150 -674 -37 -100 -151 -340 -165 -349 -4
-3 -54 52 -110 121 -57 69 -114 134 -128 144 -52 41 -129 13 -158 -56 -16 -39
-18 -112 -4 -150 6 -14 60 -87 120 -160 61 -74 110 -138 110 -144 0 -5 -46
-57 -101 -115 -240 -249 -526 -406 -802 -440 l-57 -7 0 222 c0 247 -6 276 -64
311 -40 25 -77 24 -110 -2 -56 -44 -61 -65 -64 -306 -4 -256 9 -234 -118 -207
-283 58 -565 228 -776 467 l-69 78 55 77 c151 212 168 240 173 287 7 56 -18
126 -54 155 -30 23 -89 26 -118 6 -11 -8 -63 -75 -115 -150 -52 -75 -98 -136
-101 -136 -11 0 -128 245 -169 353 -54 145 -107 351 -129 500 l-18 122 101
105 c115 118 195 233 260 371 98 206 151 425 162 664 7 145 -7 273 -52 472
-19 86 -23 122 -16 137 18 37 147 177 228 248 193 169 409 279 639 328 50 10
96 19 103 19 9 1 12 -170 11 -826z m391 800 c209 -43 446 -170 620 -331 l75
-69 -52 -74 c-159 -227 -165 -236 -170 -283 -7 -57 18 -127 54 -156 28 -22 82
-26 114 -10 10 6 67 78 125 161 l107 150 39 -58 c209 -312 344 -709 383 -1130
l7 -73 -630 0 -630 0 -12 35 c-19 57 -86 148 -134 184 l-46 32 0 825 0 825 38
-6 c20 -3 71 -13 112 -22z m-212 -1936 c70 -74 34 -217 -54 -217 -63 0 -105
72 -90 154 15 78 97 113 144 63z"/>
</g>
</svg>
