<?xml version="1.0" standalone="no"?>
<!DOCTYPE svg PUBLIC "-//W3C//DTD SVG 20010904//EN"
 "http://www.w3.org/TR/2001/REC-SVG-20010904/DTD/svg10.dtd">
<svg version="1.0" xmlns="http://www.w3.org/2000/svg"
 width="696.000000pt" height="749.000000pt" viewBox="0 0 696.000000 749.000000"
 preserveAspectRatio="xMidYMid meet">
<metadata>
Created by potrace 1.16, written by Peter Selinger 2001-2019
</metadata>
<g transform="translate(0.000000,749.000000) scale(0.100000,-0.100000)"
fill="#000000" stroke="none">
<path d="M2443 7395 c-386 -80 -717 -231 -1048 -479 -143 -107 -437 -395 -551
-541 -151 -191 -320 -460 -412 -652 l-34 -73 -54 0 c-47 0 -54 3 -59 23 -3 12
-21 87 -39 167 -32 136 -36 146 -72 179 l-37 34 -34 -36 c-27 -30 -33 -45 -33
-82 0 -25 36 -206 81 -403 78 -342 82 -358 114 -391 l32 -33 89 35 c49 19 188
70 309 112 121 43 228 85 239 94 23 21 46 64 46 90 0 27 -57 91 -81 91 -10 0
-69 -18 -130 -40 -86 -31 -127 -40 -176 -40 l-63 0 0 61 c0 55 6 73 65 189
380 746 1006 1275 1729 1461 179 46 286 60 511 66 321 8 542 -22 814 -113 603
-201 1125 -640 1477 -1244 59 -101 214 -423 214 -445 0 -8 6 -15 13 -15 27 0
48 -39 92 -171 93 -276 153 -559 181 -859 21 -212 14 -764 -10 -940 -97 -699
-338 -1283 -732 -1775 -104 -130 -304 -332 -424 -428 -227 -183 -518 -346
-765 -430 -239 -81 -419 -114 -686 -124 -134 -5 -176 -3 -220 10 -30 8 -104
20 -166 26 -438 40 -903 246 -1296 571 -53 44 -101 80 -106 80 -5 0 -23 -16
-40 -35 -23 -27 -31 -45 -31 -74 0 -36 6 -45 67 -101 90 -82 276 -222 389
-292 290 -179 633 -305 969 -354 221 -33 677 -20 709 20 6 7 40 19 76 26 294
58 624 200 909 391 601 403 1065 1045 1310 1812 234 735 250 1529 46 2259 -19
68 -35 142 -35 166 0 113 -203 565 -380 847 -31 50 -59 98 -63 108 -3 9 -11
17 -17 17 -5 0 -10 7 -10 15 0 8 -4 15 -10 15 -5 0 -10 5 -10 11 0 35 -259
338 -417 488 -393 374 -827 608 -1309 706 -116 24 -138 25 -470 24 -325 0
-357 -2 -461 -24z"/>
<path d="M2160 5304 c-480 -221 -826 -386 -843 -402 -15 -14 -32 -42 -37 -61
-6 -23 -10 -409 -10 -1039 0 -1065 -1 -1042 46 -1083 11 -10 132 -76 270 -148
170 -89 261 -131 282 -131 23 0 173 -74 510 -252 262 -138 481 -251 487 -251
10 0 1362 705 1611 840 70 38 106 64 120 86 18 31 19 64 19 1047 l0 1015 -22
31 c-18 26 -85 57 -442 209 -324 137 -421 182 -421 196 0 9 -6 19 -12 22 -7 3
-168 71 -358 151 -189 80 -353 146 -365 145 -11 0 -387 -169 -835 -375z m1078
71 c103 -44 192 -75 211 -75 27 0 570 -221 819 -333 20 -9 23 -17 20 -64 l-3
-54 -675 -354 -675 -354 -65 0 c-61 -1 -73 3 -177 60 -105 56 -113 62 -113 89
0 30 -1 30 -56 30 -52 0 -72 8 -250 101 l-194 101 0 49 0 49 -61 0 c-57 0 -72
6 -201 73 l-138 72 2 54 3 54 625 288 c754 347 663 326 928 214z m1250 -1536
l-3 -912 -720 -378 c-701 -368 -722 -378 -778 -379 l-57 0 2 913 3 912 715
376 c711 375 715 377 778 378 l62 1 -2 -911z m-2793 705 c81 -42 149 -83 152
-90 3 -10 23 -14 62 -14 52 -1 71 -9 251 -105 169 -90 195 -107 198 -129 3
-24 7 -26 49 -26 38 0 74 -15 219 -91 l174 -92 0 -913 0 -914 -55 0 c-52 0
-76 11 -505 237 -359 190 -450 242 -451 258 -1 16 -34 37 -151 95 -83 41 -161
83 -174 93 l-24 18 0 868 c0 477 3 871 7 874 3 4 28 7 54 7 40 0 71 -12 194
-76z"/>
</g>
</svg>
