<?xml version="1.0" standalone="no"?>
<!DOCTYPE svg PUBLIC "-//W3C//DTD SVG 20010904//EN"
 "http://www.w3.org/TR/2001/REC-SVG-20010904/DTD/svg10.dtd">
<svg version="1.0" xmlns="http://www.w3.org/2000/svg"
 width="693.000000pt" height="746.000000pt" viewBox="0 0 693.000000 746.000000"
 preserveAspectRatio="xMidYMid meet">

<g transform="translate(0.000000,746.000000) scale(0.100000,-0.100000)"
fill="#000000" stroke="none">
<path d="M4951 6062 c-239 -506 -387 -885 -463 -1179 -29 -114 -33 -142 -32
-263 0 -163 22 -258 90 -397 156 -318 471 -427 732 -256 63 42 144 130 191
208 88 145 137 385 112 552 -32 225 -157 591 -356 1037 -72 163 -202 436 -207
436 -2 -1 -32 -62 -67 -138z m88 -499 c30 -61 176 -428 221 -558 105 -305 114
-442 40 -600 -41 -86 -90 -139 -165 -176 -56 -28 -72 -31 -127 -27 -78 5 -130
29 -190 89 -81 81 -128 204 -128 337 0 142 81 387 303 919 12 29 23 53 24 53
2 0 11 -17 22 -37z"/>
<path d="M3130 5998 c-448 -945 -790 -1809 -935 -2363 -68 -260 -80 -342 -80
-550 0 -203 8 -270 55 -450 67 -257 186 -477 348 -647 138 -144 300 -244 467
-289 116 -31 299 -31 413 -1 386 103 696 457 822 936 47 183 55 247 54 456 0
171 -3 211 -27 326 -98 477 -360 1199 -752 2074 -80 179 -271 586 -291 623 -9
15 -21 -4 -74 -115z m101 -625 c17 -38 84 -192 149 -343 410 -953 630 -1630
630 -1937 0 -235 -84 -515 -210 -704 -58 -86 -192 -215 -271 -262 -109 -64
-206 -90 -334 -90 -91 0 -123 4 -188 25 -293 97 -520 388 -597 768 -45 219
-36 383 34 660 98 384 352 1063 646 1725 34 77 71 159 81 183 10 23 21 42 24
42 2 0 19 -30 36 -67z"/>
<path d="M4995 3641 c-28 -12 -62 -50 -74 -84 -8 -19 -11 -248 -11 -699 l0
-670 -133 179 c-138 185 -169 213 -219 198 -82 -25 -125 -149 -80 -235 29 -57
488 -666 507 -673 29 -12 76 -8 103 9 22 13 383 487 484 635 50 74 45 168 -11
232 -24 26 -37 32 -69 32 -26 0 -48 -7 -62 -20 -12 -11 -79 -96 -149 -190
l-126 -169 -5 679 c-5 733 -4 709 -57 757 -24 22 -71 31 -98 19z"/>
<path d="M924 1010 c-32 -13 -72 -67 -80 -105 -11 -61 4 -123 41 -163 l33 -37
2965 0 2965 0 27 25 c73 67 73 193 0 260 l-27 25 -2951 2 c-1624 1 -2961 -2
-2973 -7z"/>
<path d="M901 294 c-31 -22 -61 -89 -61 -138 0 -53 35 -123 71 -141 24 -13
399 -15 2974 -15 2655 0 2949 2 2976 16 37 19 69 83 69 139 0 49 -30 117 -61
139 -22 15 -262 16 -2984 16 -2722 0 -2962 -1 -2984 -16z"/>
</g>
</svg>
