<?xml version="1.0" standalone="no"?>
<!DOCTYPE svg PUBLIC "-//W3C//DTD SVG 20010904//EN"
 "http://www.w3.org/TR/2001/REC-SVG-20010904/DTD/svg10.dtd">
<svg version="1.0" xmlns="http://www.w3.org/2000/svg"
 width="693.000000pt" height="746.000000pt" viewBox="0 0 693.000000 746.000000"
 preserveAspectRatio="xMidYMid meet">

<g transform="translate(0.000000,746.000000) scale(0.100000,-0.100000)"
fill="#000000" stroke="none">
<path d="M79 7435 c-30 -16 -59 -71 -66 -125 -7 -48 79 -396 152 -615 127
-384 302 -764 521 -1131 l84 -142 -20 -83 c-70 -290 -40 -673 81 -1016 97
-273 226 -469 474 -718 467 -467 1156 -895 1770 -1100 233 -78 639 -163 935
-196 167 -19 567 -16 704 4 393 60 694 218 862 454 234 325 185 775 -118 1099
-141 150 -320 255 -578 339 -434 141 -905 438 -1480 934 -189 163 -592 565
-757 756 -220 253 -398 411 -518 459 -22 9 -71 22 -110 29 -68 12 -71 14 -102
61 -50 76 -112 135 -178 165 -97 46 -156 56 -315 55 -168 -1 -343 -28 -640
-98 -134 -32 -187 -41 -192 -33 -4 7 -58 129 -119 272 -61 143 -148 337 -194
430 -100 208 -128 237 -196 200z m1504 -1090 c38 -8 84 -24 103 -35 33 -21 80
-77 72 -86 -3 -2 -56 -18 -119 -34 -63 -16 -198 -57 -301 -90 -170 -55 -189
-63 -203 -90 -29 -57 -14 -142 29 -161 20 -9 54 -1 207 49 316 103 488 143
634 145 87 1 92 0 140 -33 68 -46 186 -150 180 -160 -2 -4 -38 -10 -79 -13
-163 -14 -416 -84 -584 -163 -80 -37 -95 -48 -107 -78 -20 -48 -19 -85 5 -123
26 -43 47 -42 151 6 186 87 433 148 639 158 173 9 167 12 295 -133 266 -302
713 -709 1075 -980 432 -324 768 -513 1114 -625 177 -58 274 -104 376 -179
195 -145 309 -342 298 -515 -14 -222 -244 -432 -582 -529 -319 -93 -785 -93
-1271 0 -146 28 -398 90 -424 104 -14 7 -21 41 -36 184 -11 103 -16 203 -12
245 7 87 36 191 52 191 7 0 37 -11 68 -25 99 -43 399 -152 522 -189 302 -89
625 -157 822 -172 l92 -7 30 32 c59 63 59 189 1 251 -16 17 -38 30 -52 30 -53
0 -252 22 -368 41 -876 141 -1921 680 -2565 1324 -379 378 -671 790 -967 1363
-55 105 -97 192 -94 192 4 0 75 16 159 35 338 77 563 99 700 70z m-425 -1439
c201 -244 510 -537 791 -749 157 -120 402 -284 602 -404 l164 -98 -17 -68
c-29 -117 -41 -262 -35 -434 l5 -162 -88 44 c-417 209 -838 512 -1155 829
-225 225 -333 388 -410 619 -78 232 -111 518 -79 675 4 20 11 14 60 -50 30
-40 103 -131 162 -202z m1816 -1382 c96 -47 114 -59 107 -73 -37 -69 -51 -305
-30 -500 6 -56 9 -105 7 -110 -2 -7 -222 70 -235 83 -1 1 -7 74 -13 162 -8
115 -8 193 -1 275 10 100 34 219 46 219 2 0 55 -25 119 -56z"/>
<path d="M6174 3712 c-64 -51 -72 -155 -20 -265 40 -85 56 -154 56 -241 0
-119 -35 -237 -96 -326 -64 -93 -67 -189 -8 -260 21 -24 34 -30 64 -30 33 0
44 6 75 43 49 56 119 203 146 302 32 120 38 348 11 475 -38 184 -114 320 -178
320 -16 0 -39 -8 -50 -18z"/>
<path d="M557 3669 c-53 -31 -69 -147 -46 -334 47 -389 230 -684 478 -771 115
-41 299 -26 358 28 71 66 48 254 -34 274 -14 4 -49 1 -78 -6 -81 -19 -181 -9
-244 26 -164 89 -279 345 -281 624 0 73 -26 142 -58 159 -26 14 -71 14 -95 0z"/>
<path d="M887 2132 c-52 -55 -59 -123 -23 -230 61 -179 175 -327 301 -388 53
-25 71 -29 150 -29 80 0 97 3 150 30 68 34 94 65 105 124 15 82 -16 161 -74
189 -23 12 -32 10 -81 -12 -149 -71 -283 13 -364 228 -19 49 -42 92 -54 101
-35 24 -80 19 -110 -13z"/>
<path d="M215 998 c-33 -20 -53 -51 -64 -100 -16 -74 5 -150 51 -182 20 -14
285 -16 2648 -16 2363 0 2628 2 2648 16 78 54 72 238 -9 279 -24 13 -373 15
-2641 15 -1954 -1 -2618 -4 -2633 -12z"/>
<path d="M190 280 c-58 -62 -58 -188 0 -250 l28 -30 2630 0 2629 0 27 21 c16
13 32 41 42 75 20 69 6 139 -36 184 l-28 30 -2632 0 -2632 0 -28 -30z"/>
</g>
</svg>
