<?xml version="1.0" standalone="no"?>
<!DOCTYPE svg PUBLIC "-//W3C//DTD SVG 20010904//EN"
 "http://www.w3.org/TR/2001/REC-SVG-20010904/DTD/svg10.dtd">
<svg version="1.0" xmlns="http://www.w3.org/2000/svg"
 width="693.000000pt" height="746.000000pt" viewBox="0 0 693.000000 746.000000"
 preserveAspectRatio="xMidYMid meet">

<g transform="translate(0.000000,746.000000) scale(0.100000,-0.100000)"
fill="#000000" stroke="none">
<path d="M3715 7444 c-94 -20 -218 -81 -307 -152 -193 -154 -329 -393 -394
-692 -24 -107 -27 -455 -5 -565 21 -110 76 -272 124 -365 l44 -85 -86 -90
c-296 -313 -516 -813 -641 -1461 -27 -139 -30 -168 -20 -204 20 -75 87 -118
138 -89 46 26 61 61 88 199 117 621 311 1064 586 1344 l97 99 39 -35 c225
-203 530 -250 787 -121 63 32 154 94 179 122 11 11 25 21 32 21 7 0 39 -30 71
-66 232 -262 404 -714 524 -1377 12 -62 29 -126 40 -143 38 -62 108 -67 154
-13 48 58 45 108 -37 479 -125 572 -299 987 -527 1257 l-61 72 39 73 c97 180
140 359 148 603 9 280 -27 459 -137 680 -190 385 -529 582 -875 509z m225
-274 c206 -32 415 -225 506 -467 55 -145 68 -225 68 -403 -1 -146 -4 -177 -27
-265 -52 -193 -156 -366 -282 -468 -119 -96 -231 -133 -380 -125 -475 27 -770
707 -549 1267 73 184 205 337 354 409 114 56 195 70 310 52z"/>
<path d="M1912 4289 c-43 -22 -77 -59 -104 -114 -8 -16 -57 -200 -109 -407
l-94 -378 -304 0 c-289 0 -307 -1 -348 -21 -85 -41 -135 -142 -135 -272 0
-112 33 -176 144 -282 46 -44 156 -150 245 -236 l161 -157 -94 -383 c-86 -345
-95 -391 -90 -451 11 -150 102 -258 218 -258 24 0 58 8 76 17 17 10 140 121
272 246 132 126 244 227 249 225 5 -2 113 -103 240 -226 127 -122 246 -231
264 -242 78 -48 198 -9 252 83 57 98 61 183 15 371 -17 71 -29 130 -28 132 7
6 369 -353 368 -366 0 -7 -52 -224 -115 -481 -82 -332 -115 -485 -115 -527 0
-213 164 -371 317 -307 40 17 55 31 407 370 131 126 244 231 252 233 8 2 149
-126 314 -285 165 -158 319 -298 342 -311 150 -81 328 80 328 297 0 39 -34
195 -106 487 -58 236 -111 453 -117 483 l-12 54 190 183 c105 101 191 179 193
175 2 -5 -12 -64 -29 -132 -45 -174 -45 -255 2 -346 59 -117 165 -164 257
-115 18 10 140 120 272 246 132 125 244 226 249 224 5 -2 115 -104 245 -228
129 -124 250 -233 268 -242 78 -42 179 -8 237 79 77 115 74 163 -38 623 l-92
375 108 105 c463 450 438 417 438 570 0 108 -21 168 -78 229 -57 60 -66 61
-401 61 l-305 0 -11 38 c-5 22 -46 187 -91 368 -44 180 -89 350 -101 376 -70
164 -253 184 -348 38 -23 -36 -49 -125 -126 -432 l-96 -388 -305 0 c-332 0
-343 -2 -399 -58 -52 -52 -77 -116 -82 -212 -6 -130 17 -181 130 -290 48 -48
88 -89 88 -93 0 -4 -101 -7 -224 -7 -167 0 -226 3 -234 13 -5 6 -60 218 -121
470 -61 252 -120 479 -131 506 -12 26 -41 67 -65 91 -108 106 -256 77 -341
-67 -21 -35 -151 -531 -244 -931 -20 -84 -12 -82 -256 -82 -118 0 -214 4 -214
8 0 4 38 45 84 90 112 109 131 148 131 272 0 108 -21 168 -78 229 -57 60 -66
61 -401 61 l-305 0 -11 38 c-5 22 -46 187 -91 368 -44 181 -89 349 -100 374
-54 121 -163 170 -267 119z m3918 -642 c106 -434 122 -472 212 -518 33 -17 70
-20 343 -26 l306 -6 -168 -160 c-309 -295 -338 -326 -359 -387 -34 -100 -27
-159 70 -559 48 -199 86 -364 84 -366 -2 -2 -111 101 -243 227 -131 127 -254
237 -272 244 -39 17 -89 18 -132 3 -19 -7 -133 -106 -279 -244 -136 -128 -248
-232 -249 -231 -1 1 39 166 89 366 141 567 151 523 -210 877 l-247 242 308 1
c287 0 310 1 347 20 39 20 76 61 102 115 9 17 58 197 109 402 52 204 95 370
96 369 2 -1 43 -168 93 -369z m-3740 -11 c50 -203 98 -382 106 -398 25 -49 83
-106 121 -118 21 -8 151 -15 332 -19 l298 -6 -245 -235 c-358 -343 -346 -297
-213 -855 50 -208 89 -380 88 -381 -1 -1 -109 102 -241 228 -131 127 -254 236
-272 244 -50 21 -113 17 -156 -9 -20 -12 -137 -117 -260 -232 -228 -216 -251
-236 -243 -213 2 7 43 171 91 363 136 550 146 509 -214 862 l-247 242 308 1
c287 0 310 1 347 20 39 20 76 61 103 115 8 17 56 195 107 398 51 202 95 366
97 364 1 -2 44 -169 93 -371z m1787 -58 c6 -7 61 -218 123 -468 61 -250 121
-475 131 -499 30 -69 64 -107 121 -135 l52 -26 383 0 383 0 6 -26 c8 -29 18
-18 -432 -454 -185 -179 -204 -200 -224 -255 -17 -45 -23 -81 -23 -145 0 -75
14 -140 116 -548 64 -255 113 -470 111 -477 -3 -7 -12 -16 -19 -19 -9 -3 -130
106 -317 285 -167 160 -320 299 -340 310 -49 25 -127 25 -176 0 -20 -11 -174
-150 -341 -310 -239 -229 -307 -288 -318 -280 -7 6 -13 22 -13 34 0 12 50 224
111 471 60 247 113 470 116 496 8 63 -12 161 -45 221 -18 34 -119 137 -334
344 -169 162 -308 303 -308 312 0 40 11 41 404 41 365 0 381 1 423 21 48 23
93 73 122 134 10 22 69 247 131 500 62 253 117 466 122 473 6 6 14 12 18 12 4
0 12 -6 17 -12z"/>
</g>
</svg>
